<svg width="17" height="53" viewBox="0 0 17 53" fill="none" xmlns="http://www.w3.org/2000/svg">
<path d="M14.9805 0.214375C15.9866 0.716065 16.3955 1.93835 15.8938 2.94443L3.85761 27.0815C3.35592 28.0876 2.13363 28.4965 1.12755 27.9948C0.121477 27.4931 -0.28741 26.2708 0.214279 25.2647L12.2504 1.12765C12.7521 0.121571 13.9744 -0.287315 14.9805 0.214375Z" fill="#D9D9D9"/>
<path d="M14.9805 52.4219C15.9866 51.9202 16.3955 50.6979 15.8938 49.6918L3.85761 25.5548C3.35592 24.5487 2.13363 24.1398 1.12755 24.6415C0.121477 25.1432 -0.28741 26.3655 0.214279 27.3715L12.2504 51.5086C12.7521 52.5147 13.9744 52.9236 14.9805 52.4219Z" fill="#D9D9D9"/>
</svg>
