<svg width="17" height="53" viewBox="0 0 17 53" fill="none" xmlns="http://www.w3.org/2000/svg">
<path d="M1.86349 52.4219C0.857412 51.9202 0.448525 50.6979 0.950215 49.6918L12.9864 25.5547C13.4881 24.5487 14.7104 24.1398 15.7164 24.6415C16.7225 25.1431 17.1314 26.3654 16.6297 27.3715L4.59354 51.5086C4.09185 52.5147 2.86957 52.9235 1.86349 52.4219Z" fill="#D9D9D9"/>
<path d="M1.86349 0.21434C0.857413 0.71603 0.448525 1.93832 0.950215 2.9444L12.9864 27.0815C13.4881 28.0875 14.7104 28.4964 15.7164 27.9947C16.7225 27.493 17.1314 26.2708 16.6297 25.2647L4.59355 1.12762C4.09186 0.12154 2.86957 -0.28735 1.86349 0.21434Z" fill="#D9D9D9"/>
</svg>
