<svg width="53" height="17" viewBox="0 0 53 17" fill="none" xmlns="http://www.w3.org/2000/svg">
<path d="M0.214375 1.12765C0.716065 0.121572 1.93835 -0.287315 2.94443 0.214375L27.0815 12.2505C28.0876 12.7522 28.4965 13.9745 27.9948 14.9806C27.4931 15.9867 26.2708 16.3956 25.2647 15.8939L1.12765 3.8577C0.121572 3.35601 -0.287315 2.13373 0.214375 1.12765Z" fill="#D9D9D9"/>
<path d="M52.4219 1.12765C51.9202 0.121572 50.6979 -0.287315 49.6918 0.214375L25.5548 12.2505C24.5487 12.7522 24.1398 13.9745 24.6415 14.9806C25.1432 15.9867 26.3655 16.3956 27.3715 15.8939L51.5086 3.8577C52.5147 3.35601 52.9236 2.13373 52.4219 1.12765Z" fill="#D9D9D9"/>
</svg>
